<?xml version="1.0" encoding="UTF-8" standalone="no"?>
<!-- Created with Inkscape (http://www.inkscape.org/) -->

<svg
   width="210mm"
   height="297mm"
   viewBox="0 0 210 297"
   version="1.1"
   id="svg5"
   inkscape:version="1.1 (c68e22c387, 2021-05-23)"
   sodipodi:docname="apple.svg"
   xmlns:inkscape="http://www.inkscape.org/namespaces/inkscape"
   xmlns:sodipodi="http://sodipodi.sourceforge.net/DTD/sodipodi-0.dtd"
   xmlns:xlink="http://www.w3.org/1999/xlink"
   xmlns="http://www.w3.org/2000/svg"
   xmlns:svg="http://www.w3.org/2000/svg">
  <sodipodi:namedview
     id="namedview7"
     pagecolor="#505050"
     bordercolor="#eeeeee"
     borderopacity="1"
     inkscape:pageshadow="0"
     inkscape:pageopacity="0"
     inkscape:pagecheckerboard="0"
     inkscape:document-units="mm"
     showgrid="false"
     inkscape:zoom="16.177523"
     inkscape:cx="423.9603"
     inkscape:cy="321.03697"
     inkscape:window-width="1920"
     inkscape:window-height="1017"
     inkscape:window-x="-8"
     inkscape:window-y="-8"
     inkscape:window-maximized="1"
     inkscape:current-layer="layer1"
     inkscape:rotation="3" />
  <defs
     id="defs2">
    <linearGradient
       inkscape:collect="always"
       id="linearGradient2682">
      <stop
         style="stop-color:#d40000;stop-opacity:1;"
         offset="0"
         id="stop2678" />
      <stop
         style="stop-color:#dbce00;stop-opacity:1"
         offset="1"
         id="stop2680" />
    </linearGradient>
    <linearGradient
       inkscape:collect="always"
       xlink:href="#linearGradient2682"
       id="linearGradient2684"
       x1="127.08173"
       y1="167.0625"
       x2="97.096161"
       y2="62.11298"
       gradientUnits="userSpaceOnUse"
       gradientTransform="scale(3.7795276)" />
  </defs>
  <g
     inkscape:label="Layer 1"
     inkscape:groupmode="layer"
     id="layer1">
    <path
       style="fill:#8a2e11;fill-opacity:1;stroke:#000000;stroke-width:1;stroke-linecap:butt;stroke-linejoin:miter;stroke-miterlimit:4;stroke-dasharray:none;stroke-opacity:1"
       d="m 98.408569,105.56268 c 0,0 -5.455543,-2.07849 1.933891,-14.703268 7.28451,-12.445511 10.43438,-11.162729 10.43438,-11.162729 l 0.26921,0.904871 c 0,0 -6.11003,5.070421 -8.62863,10.774247 -2.08209,4.715266 -1.39971,13.857579 -1.39971,13.857579 z"
       id="path6593"
       sodipodi:nodetypes="csccscc" />
    <path
       id="path180"
       style="fill:url(#linearGradient2684);fill-opacity:1;stroke:#000000;stroke-width:3.77952761;stroke-opacity:1;stroke-miterlimit:4;stroke-dasharray:none"
       d="M 295.18945,355.22656 C 279.67398,354.28658 261.50559,361.20468 242,377.5 c -31.54191,35.80391 -49.04654,82.58954 -49.06641,131.14258 5.4e-4,107.29856 83.66098,194.28101 186.86133,194.28125 103.20035,-2.4e-4 186.86079,-86.98269 186.86133,-194.28125 -0.004,-40.05055 -12.10419,-74.72617 -38.39565,-108.62211 -38.58955,-43.90845 -74.00092,-53.38354 -115.94659,-33.35309 -25.67595,12.26114 -15.9567,15.06772 -33.15162,16.57375 -18.26894,1.6001 -35.88498,-18.49202 -35.88498,-18.49202 0,0 -16.66094,-7.61859 -48.08796,-9.52255 z"
       transform="scale(0.26458333)"
       sodipodi:nodetypes="scccccsscs" />
  </g>
</svg>
